<?xml version="1.0" encoding="utf-8"?>
<!-- Generator: Adobe Illustrator 24.0.0, SVG Export Plug-In . SVG Version: 6.00 Build 0)  -->
<svg version="1.1" id="_x31_" xmlns="http://www.w3.org/2000/svg" xmlns:xlink="http://www.w3.org/1999/xlink" x="0px" y="0px"
	 viewBox="0 0 181 43.1" style="enable-background:new 0 0 181 43.1;" xml:space="preserve">
<style type="text/css">
	.st0{fill:#3DEF29;}
	.st1{fill:#3EEF2A;}
	.st2{fill:#3FEF2B;}
	.st3{fill:#46F015;}
	.st4{fill:#3EEF2B;}
	.st5{fill:#40EF2D;}
	.st6{fill:#3FEF2C;}
	.st7{fill:#48F018;}
</style>
<g>
	<path class="st0" d="M126.4,22.7c0-0.7-0.1-1.3-0.5-2c-0.2-0.4-0.6-1.3-0.2-2c0.4-0.7,0.1-1-0.6-1.2c-1.2-0.4-1.1-0.5-0.5-1.5
		c0.6-0.9,1.2-1.8,1.8-2.7c0.3-0.5,0.4-1.1,0.1-1.5c-0.3-0.4-0.2-0.8,0.1-1.1c0.4-0.6,0.5-1.3,0.6-1.9c0.2-1.2,0.6-2.3,1.2-3.3
		c0.1-0.2,0.2-0.4,0.2-0.5c-0.3-1.4,0.8-1.9,1.7-2.3c2-0.9,4.1-1.3,6.3-1.3c1.8,0,3.6,0.1,5.3,0.7c2.5,0.9,3.5,3,4.2,5.4
		c0.1,0.4,0.5,0.9-0.1,1.4c-0.3,0.2-0.5,0.4-0.9,0.2c-0.7-0.3-1.3-0.1-1.9,0.2c-0.3,0.2-0.6,0.3-0.9,0.5c-0.8,0.5-1.9,0.8-2.1,1.7
		c-0.2,1.3-0.3,2.8,0.5,4c0.8,1.3,1.5,2.6,2.3,3.9c0.3,0.4,0.3,0.7-0.1,1.1c-2.4,2.2-3.8,5-4.2,8.1c-0.3,2.7,0,5.4,1.5,8
		c-0.8,0-1.4,0.3-1.8,0.8c-0.5,0.5-0.4,1.2-0.4,1.8c0,0.7,0,1.4,0,2c0,0.5-0.2,0.7-0.7,0.7c-2.8,0-5.6,0-8.3,0
		c-0.7,0-0.7-0.4-0.6-0.9c0.2-2.1,1.2-3.8,2.5-5.4c1.1-1.5,2.3-2.9,2.4-4.9c0-0.2,0.1-0.4,0.2-0.4c1.5-0.8,0.8-2.1,0.6-3.1
		c-0.3-1.8-1.5-2.6-3.3-2.5c-1,0-2,0-3,0c-0.7,0-1.2-0.3-1.3-1C126.7,23.4,126.5,23,126.4,22.7z"/>
	<path class="st0" d="M35.7,10.8c-0.5-0.3-0.9-1.3-1.5-1c-0.4,0.2,0.1,1,0.2,1.6c0,0.2,0.1,0.4,0,0.5c-0.2,0.2-0.4,0-0.6-0.1
		c-0.7-0.5-1.3-1.2-1.9-1.8c-0.3-0.3-0.5-0.6-1-0.8c-0.1,0.7-0.2,1.4-0.3,2.1c-0.3,0-0.4-0.2-0.5-0.4c-0.2-0.2-0.4-0.6-0.7-0.5
		c-0.4,0.1-0.1,0.5-0.2,0.8c-0.2,0.7-0.8,0.7-1.4,0.8c-0.5,0.1-0.7-0.2-0.6-0.7c0-0.3-0.2-0.3-0.6-0.4c0.1,0.7,0.2,1.4,1,1.5
		c0.2,0,0.4,0,0.5,0.3c0,0.2-0.2,0.3-0.3,0.4c-0.3,0.2-0.6,0.3-0.9,0.5c-0.3,0.2-0.8,0.3-0.9,0.7c-0.4,1.4-1.7,1.5-2.7,2
		c-0.6,0.3-1.3,0.3-1.7-0.2c-0.3-0.5-0.3-1.2,0-1.7c0.5-1,0.3-2.3-0.5-2.9c-0.1-0.1-0.2-0.2-0.2-0.2c-1.2,0.1-2-0.6-2.7-1.4
		c-0.1-0.1-0.3-0.3-0.5,0c-0.2,0.4-0.3,0.8,0,1.2c0.2,0.2,0.6,0.4,0.4,0.8c-0.2,0.4-0.6,0.2-0.9,0.1c-0.7-0.2-1.5-0.3-2.2-0.5
		c-0.9-0.2-1.5-0.1-1.8,0.8c-0.3,0.8-0.6,1.6-0.5,2.5c0.1,0.6-0.2,1-0.9,1.2c-0.8,0.2-1-0.1-1.3-0.7c-0.5-0.9-0.5-1.5,0.6-1.9
		c0.6-0.2,0.6-0.8,0-1.1c-0.3-0.1-0.5-0.2-0.8-0.3c0.1-0.8,1.2-1,1.1-1.9c-1.1,0.6-1.8,1.5-2.5,2.5c-0.9,1.3-1.6,2.7-2,4.3
		c-0.1,0.5-0.4,0.8-1,0.8c-1.6,0-3.1,0.3-4.8,0.1C2.6,9.5,7.2,4.2,15.3,2.2c6-1.5,11.5-0.1,16.4,3.7c1.7,1.3,3.2,2.9,4.2,4.8
		C35.8,10.7,35.7,10.8,35.7,10.8z"/>
	<path class="st1" d="M153.4,32.6c-0.7-0.8-1.1-1.6-1.2-2.5c0-0.1-0.1-0.3-0.1-0.3c-1.1,0.2-1-0.8-1.3-1.3c-0.9-1.5-1.8-3-2.7-4.6
		c-0.3-0.5-0.4-0.5-0.9-0.2c-4.4,3.3-4.3,9.4-1,12.6c1.8,1.8,4,2.5,6.4,2.6c1.8,0,3.6,0,5.4,0c0.6,0,0.9,0.1,0.9,0.8
		c0,2.3,0,2.3-2.3,2.3c-5.2,0-10.4,0-15.6,0c-0.8,0-1.1-0.1-1.1-1c0.1-2.1,0-2.1,2.1-2.1c0.7,0,1.4,0,2.3,0c-0.8-1-1.5-1.8-2.1-2.7
		c-3.1-5.2-1.3-11.8,3.2-15c0.5-0.4,0.6-0.6,0.3-1.2c-1-1.7-2-3.5-3-5.2c-0.4-0.6-0.3-0.9,0.4-1.2s1.4-0.6,2-1
		c0.7-0.4,1-0.2,1.4,0.4c2.4,4.3,5,8.5,7.4,12.8c0.3,0.6,0.6,0.6,1.2,0.4c1.5-0.5,3-0.3,4.5,0.2c0-0.4,0-0.7,0-1
		c0-1.8,0-1.8-1.7-1.8c-1.2,0-2.3,0.1-3.3,0.9c-0.3,0.2-0.6,0.3-0.9,0c-0.2-0.4,0.1-0.6,0.4-0.7c1.7-0.9,3.4-1,5.3-0.8
		c0.5,0.1,1,0.2,1.5,0.3c1.8,0.5,2.8,1.7,2.8,3.6c0,2,0,4.1,0,6.1c0,0.3,0,0.6-0.4,0.6c-2-0.3-3.9,0.7-6,0.5c-1.7-0.1-3.5,0-5.2,0
		c-0.6,0-0.8-0.1-0.8-0.7c0-0.6,0.2-0.8,0.8-0.8C152.4,32.6,152.8,32.6,153.4,32.6z M156.7,29.6c0,0.6,0,1.2,0,1.7
		c0,1.3,0.1,1.4,1.4,1.2c0.6-0.1,1.4-0.2,1.4-1c0.1-1.3,0-2.6,0-3.9c0-0.7-0.6-0.7-1-0.8c-0.6-0.2-1.2-0.5-1.7-0.1
		c-0.1,0.1-0.1,0.4-0.1,0.5C156.6,28,156.7,28.8,156.7,29.6z"/>
	<path class="st2" d="M56.8,24.6c3.1-2.4,5.5-2.3,7,0.2c0.9-0.7,1.7-1.5,2.9-1.8c1.9-0.4,4.4,0,4.4,3c0,2.3,0,4.6,0,6.9
		c0,0.5-0.1,0.6-0.6,0.6c-1,0-1.9,0-2.9,0c-0.6,0-0.8-0.2-0.8-0.8c0-2.6,0-5.2,0-7.8c0-1-0.3-1.2-1.1-0.7c-1.1,0.6-1.9,1.3-1.8,2.8
		c0.1,1.9,0,3.8,0,5.7c0,0.7-0.2,0.9-0.9,0.8c-0.8-0.1-1.6-0.1-2.3,0c-0.8,0.1-1.1-0.1-1.1-1c0.1-2.5,0-5.1,0-7.6
		c0-0.9-0.3-1.1-1.1-0.6c-1.1,0.6-1.9,1.3-1.8,2.8c0.1,1.9,0,3.9,0,5.8c0,0.6-0.2,0.8-0.8,0.8c-0.9-0.1-1.9,0-2.8,0
		c-0.5,0-0.7-0.1-0.7-0.6c0-3.1,0-6.1,0-9.2c0-0.5,0.2-0.7,0.7-0.6c0.9,0,1.7,0.1,2.6,0c0.7-0.1,1.1,0.2,0.9,0.9
		C56.7,24.2,56.8,24.3,56.8,24.6z"/>
	<path class="st3" d="M86.5,26.3c-0.2-4.1,0.4-8,2-11.8c0.3-0.7,0.1-1.4,0.1-2.1c0.1-2,1.1-2.6,2.9-1.8c0.2,0.1,0.3,0.1,0.5,0
		s0.3-0.2,0.5-0.3c0.8-0.4,1.4,0.5,2,0.3c0.7-0.2,1.4-0.6,2.1-0.1c0.3,0.2,0.6,0.2,0.9,0c0.8-0.6,1.5,0.2,2.2,0.2s1.4-0.7,2.1-0.2
		c0.4,0.3,0.6,0.2,1,0c1.1-0.6,2.6,0,2.5,1.2c-0.1,2,0.7,3.7,1.2,5.5c1.7,5.6,1.5,11.2-0.7,16.6c-0.4,1-0.4,2-0.4,3
		c0,1.6-1.3,2.4-2.7,1.6l-0.1-0.1c-1.1,0.4-2.2,0.1-3.3,0c-0.1,0-0.2,0.1-0.3,0.1c-0.8,0.4-1.5-0.4-2.2-0.2
		c-0.8,0.2-1.4,0.5-2.2,0.1c-0.3-0.2-0.5-0.2-0.8,0c-0.1,0.1-0.2,0.1-0.3,0.1c-0.8,0.4-1.5-0.3-2.1-0.3c-0.6,0.1-1.3,0.6-2,0.3
		c-0.6-0.2-1.1-0.7-1-1.4c0.2-2.4-0.9-4.4-1.5-6.6c-0.1-0.6-0.3-1.2-0.4-1.8C86.7,28,86.6,27.2,86.5,26.3z M97.2,34.4
		c2.3,0,4.7,0,7,0c0.7,0,0.9-0.2,1.1-0.8c2.4-6.1,2.3-12.2,0-18.3c-0.2-0.5-0.5-0.7-1-0.7c-4.7,0-9.4,0-14.2,0c-0.5,0-0.8,0.2-1,0.7
		c-2.4,6.2-2.4,12.3,0,18.5c0.2,0.5,0.5,0.7,1,0.7C92.5,34.4,94.8,34.4,97.2,34.4z M97.1,13.8c2.1,0,4.1,0,6.2,0
		c1.7,0,1.7,0,1.5-1.7V12c-0.1-0.5-0.3-0.9-0.8-0.9c-0.5-0.1-0.9,0.2-1,0.7c-0.1,0.2-0.1,0.5-0.4,0.6c-0.3,0-0.4-0.3-0.4-0.5
		c-0.1-0.4-0.4-0.7-0.9-0.7s-0.7,0.3-0.9,0.7c-0.1,0.2-0.1,0.6-0.5,0.6s-0.4-0.4-0.5-0.7c-0.1-0.4-0.4-0.6-0.8-0.6
		c-0.4,0-0.7,0.2-0.9,0.6c-0.1,0.2-0.1,0.6-0.5,0.6s-0.4-0.4-0.5-0.6c-0.2-0.4-0.5-0.6-0.9-0.6s-0.7,0.2-0.8,0.7
		c-0.1,0.2-0.1,0.5-0.4,0.6c-0.4,0-0.4-0.3-0.5-0.6c-0.2-0.4-0.4-0.6-0.9-0.6c-0.4,0-0.7,0.3-0.9,0.7c-0.1,0.3-0.1,0.6-0.5,0.6
		c-0.3,0-0.3-0.4-0.4-0.6c-0.2-0.5-0.5-0.7-1.1-0.7c-0.5,0.1-0.7,0.5-0.8,1c0,0.3,0,0.6,0,1c-0.1,0.6,0.2,0.8,0.8,0.8
		C92.6,13.8,94.9,13.8,97.1,13.8z M97.2,35.2c-2.3,0-4.6,0-6.9,0c-0.6,0-0.9,0.2-0.8,0.8c0,0.2,0,0.5,0,0.7c0,0.6,0.2,1.1,0.7,1.2
		c0.6,0.2,1-0.2,1.1-0.8c0.1-0.2,0.1-0.5,0.4-0.4c0.3,0,0.4,0.2,0.4,0.5c0.1,0.5,0.4,0.8,0.9,0.8s0.7-0.3,0.9-0.8
		c0.1-0.2,0.1-0.5,0.5-0.5c0.3,0,0.3,0.3,0.4,0.5c0.1,0.5,0.4,0.7,0.9,0.8c0.5,0,0.8-0.3,0.9-0.7c0.1-0.2,0.1-0.6,0.4-0.6
		c0.4,0,0.4,0.4,0.5,0.6c0.2,0.4,0.4,0.7,0.9,0.7c0.4,0,0.8-0.2,0.9-0.7c0.1-0.3,0.1-0.5,0.5-0.5c0.3,0,0.4,0.3,0.5,0.5
		c0.2,0.4,0.5,0.7,0.9,0.7s0.8-0.3,0.9-0.8c0.1-0.2,0.1-0.5,0.4-0.5s0.4,0.2,0.5,0.5c0.2,0.5,0.5,0.9,1.1,0.8
		c0.6-0.1,0.8-0.6,0.8-1.2c0-0.3,0-0.5,0-0.8c0.1-0.6-0.2-0.8-0.8-0.8C101.8,35.3,99.5,35.2,97.2,35.2z"/>
	<path class="st4" d="M170.8,23.5c1.4-0.6,2.8-0.8,4.2-0.4c2.4,0.6,3.9,2.4,4,4.8c0.1,2.7-1.4,4.8-3.7,5.4c-1.1,0.3-2.2,0.4-3.3,0
		c-0.6-0.2-1.1,0.1-1.7,0.2c-1.1,0.1-2.5,0.4-3.3-0.1c-0.7-0.5-0.2-2-0.2-3c0-3.3,0-6.6,0-10c0-0.6,0.2-0.8,0.8-0.8
		c0.9,0.1,1.7,0,2.6,0c0.5,0,0.7,0.2,0.6,0.7C170.7,21.3,170.8,22.3,170.8,23.5z M174.1,28.3c0-1.2-0.1-2.4,0-3.7c0-0.8-0.3-1-1-0.9
		c-0.4,0-0.8,0.1-1.1,0.2c-0.9,0.3-1.3,0.7-1.2,1.7c0.1,1.7,0,3.4,0,5.1c0,1.6,0.3,1.9,1.9,2.1c0.2,0,0.5,0,0.7,0
		c0.5,0.1,0.7-0.1,0.7-0.7C174,30.8,174.1,29.5,174.1,28.3z"/>
	<path class="st4" d="M86.4,29.1c-0.7,3.7-3.6,5.1-8.2,4c0,1,0,2,0,3c0,0.5-0.2,0.6-0.6,0.6c-1,0-1.9,0-2.9,0
		c-0.4,0-0.5-0.2-0.5-0.6c0-4.2,0-8.3,0-12.5c0-0.4,0.1-0.5,0.5-0.5c1,0,2.1-0.2,3.1,0.1c0.8,0.2,1.4-0.1,2.2-0.2
		c2.6-0.4,5.4,0.7,6.3,3.4C86.5,27.3,86.4,28.2,86.4,29.1z M81.6,28.3c0-1.2,0-2.3,0-3.5s0-1.2-1.2-1.2c-0.3,0-0.6,0.1-0.9,0.2
		c-0.8,0.2-1.2,0.7-1.2,1.7c0.1,1.7,0,3.4,0,5.1c0,1.6,0.3,1.9,1.9,2.1c0.3,0,0.6,0,0.9,0c0.5,0.1,0.6-0.1,0.6-0.6
		C81.6,30.9,81.6,29.6,81.6,28.3z"/>
	<path class="st2" d="M29.7,36.9c-3.3,2-6.9,2.9-10.8,2.8c-6.5-0.2-12.7-4-15.8-9.8c1.6,0,3.1,0,4.6,0c0.4,0,0.5,0.3,0.6,0.6
		c2.6,4,6.3,6.5,11,7.4c3.1,0.6,6.2,0.3,9.2-0.8c0.3-0.1,0.6-0.2,0.9-0.3C29.6,36.8,29.7,36.9,29.7,36.9z"/>
	<path class="st5" d="M126.4,22.7c0.1,0.3,0.4,0.7,0,1c-0.8,0-1.6,0-2.4,0c-0.4,0-0.5,0.2-0.5,0.5c0,2.7,0,5.4,0,8.1
		c0,0.5,0.2,0.5,0.6,0.5c0.8-0.1,1.5-0.5,1.8-1.4c0.1-0.3,0.3-0.8,0.7-0.5c0.4,0.2,0.2,0.6,0,0.9c-0.7,1.3-2.9,2-4.6,1.6
		c-1.9-0.4-2.7-1.5-2.7-3.5c0-1.8,0-3.6,0-5.4c0-0.6,0-1-0.8-0.9c-0.3,0-0.8,0.1-0.8-0.4s0.5-0.4,0.8-0.4c0.6,0.1,0.8-0.1,0.7-0.7
		s0.1-0.9,0.7-1.1c1.1-0.5,2.3-1,3.5-1.6c0,1,0,1.9,0,2.7c0,0.2-0.1,0.6,0.2,0.6C124.6,22.8,125.5,23.1,126.4,22.7z"/>
	<path class="st2" d="M44.5,22.9c3.2,0,5.5,2.2,5.5,5.3s-2.3,5.3-5.6,5.3c-3.2,0-5.5-2.3-5.5-5.3C38.9,25.1,41.3,22.9,44.5,22.9z
		 M44.2,28.2c0,1.3,0,2.6,0,4c0,0.5,0.1,0.7,0.7,0.7c2.4,0,4.4-2,4.4-4.6s-1.9-4.6-4.4-4.5c-0.5,0-0.7,0.2-0.7,0.7
		C44.2,25.6,44.2,26.9,44.2,28.2z"/>
	<path class="st6" d="M111.9,33.5c-1.1,0-2.2-0.2-3.1-0.8c-0.3-0.2-0.7-0.5-0.4-0.9c0.4-0.5,0.6,0,0.9,0.2c1.1,0.8,2.3,0.8,3.6,0.7
		c0.8-0.1,1-0.8,0.4-1.4c-0.9-0.8-1.9-1.6-2.8-2.3c-0.6-0.5-1.2-1-1.6-1.7c-0.9-1.4-0.5-2.9,0.9-3.7c1.8-1,3.7-1,5.6-0.1
		c0.1,0.1,0.3,0.2,0.4,0.3c0.2,0.2,0.4,0.4,0.2,0.7c-0.2,0.3-0.5,0.1-0.7,0c-0.7-0.5-1.5-0.8-2.4-0.8c-0.4,0-0.9-0.2-1.1,0.3
		c-0.2,0.5,0.3,0.8,0.6,1.1c0.8,0.7,1.6,1.2,2.3,1.9c0.3,0.3,0.6,0.5,0.9,0.8c1.7,1.8,1.3,4.1-1,5.2
		C113.8,33.4,112.9,33.6,111.9,33.5z"/>
	<path class="st0" d="M35.8,10.7c0.2,0.1,0.2,0.2,0.1,0.4c-0.1-0.1-0.2-0.1-0.3-0.2C35.7,10.8,35.8,10.7,35.8,10.7z"/>
	<path class="st2" d="M29.6,36.8c0.1-0.1,0.2-0.2,0.4-0.1c-0.1,0.1-0.2,0.2-0.2,0.2C29.7,36.9,29.6,36.8,29.6,36.8z"/>
	<path class="st7" d="M97.2,19.6c0.8-1.1,1.9-1.3,3-1.4c0.6,0,0.9,0.2,0.9,0.9c0,2.1-0.9,3.2-3,3.5c-0.5,0.1-0.7,0.3-0.6,0.7
		c0,0.1,0,0.2,0,0.3c0,1.6,0,1.7,1.6,1.9c2.3,0.3,3.6,2.4,3.4,4.6c0,0.5-0.3,0.6-0.7,0.6c-3.1,0-6.2,0-9.3,0c-0.5,0-0.7-0.3-0.7-0.8
		c-0.1-2.5,1.5-4.3,4.1-4.5c0.7,0,0.9-0.3,0.8-0.9c0-0.2,0-0.4,0-0.6c0.1-0.8,0-1.3-1.1-1.4c-1.8-0.2-2.7-1.8-2.5-3.6
		c0.1-0.6,0.4-0.6,0.9-0.7C95.3,18.2,96.2,18.6,97.2,19.6z M97.1,30c1.3,0,2.5,0,3.8,0c0.8,0,0.9-0.3,0.8-0.9
		c-0.3-1.4-1.2-2.4-2.6-2.7c-1.3-0.3-2.7-0.3-4,0s-2.2,1.4-2.4,2.7c-0.1,0.6,0,0.9,0.7,0.9C94.6,29.9,95.9,30,97.1,30z M96.7,21.3
		c0-1.3-1-2.2-2.2-2.2c-0.4,0-0.5,0.2-0.5,0.5c0,1.3,0.8,2.1,2.1,2.2C96.6,21.9,96.8,21.8,96.7,21.3z M98.2,21.8
		c1.3-0.1,2.1-0.9,2.1-2.1c0-0.4-0.1-0.6-0.5-0.6c-1.3,0.1-2.1,0.9-2.2,2.1C97.6,21.7,97.7,22,98.2,21.8z"/>
	<path class="st7" d="M91.8,16c0,0.5-0.2,0.6-0.5,0.5c-0.7-0.1-0.9,0.3-1,0.8c-0.2,0.7-0.4,1.4-0.6,2c-0.1,0.3,0,0.9-0.6,0.7
		c-0.7-0.2-0.2-0.6-0.1-0.9c0.2-0.9,0.5-1.8,0.8-2.7c0.2-0.6,1.4-1,1.9-0.6C91.8,15.8,91.8,15.9,91.8,16z"/>
</g>
</svg>
